Patient4_TMGait_0pt4_03_right_07_GRF.mot
version=1
nRows=59
nColumns=19
inDegrees=no
endheader
time	F1x	F1y	F1z	M1x	M1y	M1z	F2x	F2y	F2z	M2x	M2y	M2z	EC1x	EC1y	EC1z	EC2x	EC2y	EC2z
8.11	6.1359	748.641	64.3161	-260.3673	-60.9175	755.1982	-17.9287	-12.9588	0.57541	-2.0249	2.5982	-11.3258	-0.0592	0.0182	-0.0073	-0.0462	0.0165	0.9585
8.123	9.6604	740.876	61.8766	-258.2795	-57.2907	745.5128	-12.1078	-7.7959	0.32446	-1.0491	1.8537	-6.5694	-0.0592	0.0182	-0.0073	-0.0462	0.0165	0.9585
8.136	12.9976	734.5512	59.7174	-256.5297	-53.8718	736.771	-7.2161	-3.4499	0.11965	-0.22239	1.2291	-2.5571	-0.0592	0.0182	-0.0073	-0.0462	0.0165	0.9585
8.149	15.9732	730.5645	58.0133	-255.382	-50.8966	729.9921	-3.5189	-0.15787	-0.034571	0.40983	0.76174	0.48937	-0.0592	0.0182	-0.0073	-0.0462	0.0165	0.9585
8.162	18.5116	729.4014	56.8653	-254.9941	-48.5121	725.8135	-0.9911	2.1192	-0.14197	0.8537	0.44977	2.6096	-0.0592	0.0182	-0.0073	-0.0462	0.0165	0.9585
8.175	20.596	731.1828	56.2484	-255.4208	-46.7288	724.5106	0.54895	3.539	-0.215	1.1366	0.27299	3.9377	-0.0592	0.0182	-0.0073	-0.0462	0.0165	0.9585
8.188	22.2298	735.7262	56.1025	-256.6228	-45.513	726.0266	1.3222	4.2815	-0.2654	1.2881	0.20553	4.6273	-0.0592	0.0182	-0.0073	-0.0462	0.0165	0.9585
8.201	23.4252	742.6114	56.311	-258.4774	-44.773	730.0225	1.5596	4.5255	-0.30894	1.3359	0.22565	4.843	-0.0592	0.0182	-0.0073	-0.0462	0.0165	0.9585
8.214	24.2294	751.2297	56.7762	-260.7951	-44.4207	735.9336	1.4593	4.3962	-0.35426	1.2958	0.31179	4.6975	-0.0592	0.0182	-0.0073	-0.0462	0.0165	0.9585
8.227	24.7314	760.8338	57.3772	-263.3442	-44.3277	743.0324	1.1477	3.9603	-0.41017	1.1691	0.45238	4.2472	-0.0592	0.0182	-0.0073	-0.0462	0.0165	0.9585
8.24	25.0423	770.5621	58.0165	-265.8581	-44.3758	750.4586	0.74267	3.2516	-0.4814	0.95034	0.63276	3.5003	-0.0592	0.0182	-0.0073	-0.0462	0.0165	0.9585
8.253	25.3005	779.4757	58.589	-268.0481	-44.4263	757.2544	0.31777	2.2775	-0.57159	0.62845	0.83943	2.4486	-0.0592	0.0182	-0.0073	-0.0462	0.0165	0.9585
8.266	25.6347	786.6382	59.0239	-269.6207	-44.372	762.4661	-0.063765	1.0113	-0.66996	0.19011	1.0389	1.0474	-0.0592	0.0182	-0.0073	-0.0462	0.0165	0.9585
8.279	26.1227	791.1756	59.2636	-270.2957	-44.1281	765.2101	-0.32981	-0.53045	-0.76669	-0.36113	1.198	-0.69039	-0.0592	0.0182	-0.0073	-0.0462	0.0165	0.9585
8.292	26.791	792.3605	59.2961	-269.835	-43.6681	764.7636	-0.38584	-2.2597	-0.82095	-0.99271	1.2403	-2.6678	-0.0592	0.0182	-0.0073	-0.0462	0.0165	0.9585
8.305	27.65	789.7858	59.1467	-268.1002	-43.0071	760.7329	-0.12152	-3.9845	-0.78429	-1.6269	1.0661	-4.6557	-0.0592	0.0182	-0.0073	-0.0462	0.0165	0.9585
8.318	28.7062	783.5673	58.8959	-265.1189	-42.2162	753.2622	0.59802	-5.3024	-0.57526	-2.1075	0.52887	-6.1829	-0.0592	0.0182	-0.0073	-0.0462	0.0165	0.9585
8.331	29.9389	774.3909	58.663	-261.1029	-41.4119	743.0612	1.9373	-5.56	-0.10489	-2.185	-0.53458	-6.5048	-0.0592	0.0182	-0.0073	-0.0462	0.0165	0.9585
8.344	31.3155	763.3545	58.6055	-256.3976	-40.7575	731.2416	4.0276	-3.8132	0.73909	-1.5014	-2.297	-4.5432	-0.0592	0.0182	-0.0073	-0.0462	0.0165	0.9585
8.357	32.7789	751.6788	58.8389	-251.3958	-40.3834	719.0275	6.9601	1.1837	2.0458	0.41268	-4.8827	1.1136	-0.0592	0.0182	-0.0073	-0.0462	0.0165	0.9585
8.37	34.2428	740.4118	59.406	-246.439	-40.3616	707.4641	10.6852	10.9217	3.8718	4.1157	-8.3185	12.161	-0.0592	0.0182	-0.0073	-0.0462	0.0165	0.9585
8.383	35.6089	730.0859	60.2502	-241.7099	-40.6726	697.0846	14.8952	26.9058	6.1855	10.1705	-12.4336	30.3134	-0.0592	0.0182	-0.0073	-0.0462	0.0165	0.9585
8.396	36.7563	720.463	61.2367	-237.1469	-41.2295	687.6864	18.9029	50.3126	8.8002	19.0117	-16.7471	56.918	-0.0592	0.0182	-0.0073	-0.0462	0.0165	0.9585
8.409	37.5267	710.5092	62.1458	-232.4413	-41.8795	678.2979	21.493	81.3998	11.2812	30.7201	-20.308	92.2857	-0.0592	0.0182	-0.0073	-0.0462	0.0165	0.9585
8.422	37.7493	698.6859	62.7162	-227.1286	-42.4374	667.4522	21.0595	118.9006	12.8683	44.784	-21.6645	135.0248	-0.0592	0.0182	-0.0073	-0.0462	0.0165	0.9585
8.435	37.3236	683.4339	62.6764	-220.7514	-42.683	653.6186	16.6514	159.9431	12.6283	60.0425	-19.4205	182.0059	-0.0592	0.0182	-0.0073	-0.0462	0.0165	0.9585
8.448	36.265	663.7006	61.8467	-213.0298	-42.4438	635.7005	8.8163	199.9979	10.0132	74.7374	-13.249	228.1869	-0.0592	0.0182	-0.0073	-0.0462	0.0165	0.9585
8.461	34.7351	639.2609	60.1973	-203.9548	-41.6359	613.3342	-0.47578	234.8491	5.3593	87.2965	-4.2895	268.6664	-0.0592	0.0182	-0.0073	-0.0462	0.0165	0.9585
8.474	33.01	610.5988	57.8655	-193.7366	-40.2859	586.8217	-9.72	263.4607	-0.8656	97.3449	6.3479	302.1239	-0.0592	0.0182	-0.0073	-0.0462	0.0165	0.9585
8.487	31.377	578.4901	55.0312	-182.6588	-38.4548	556.7797	-18.0184	287.4445	-7.8307	105.5492	17.4317	330.2323	-0.0592	0.0182	-0.0073	-0.0462	0.0165	0.9585
8.5	30.03	543.5715	51.8114	-170.9356	-36.1803	523.7645	-25.0153	309.0665	-14.8732	112.8422	28.0785	355.4959	-0.0592	0.0182	-0.0073	-0.0462	0.0165	0.9585
8.513	29.0107	506.2626	48.1478	-158.6957	-33.3914	488.2107	-30.5703	330.373	-21.2517	120.0827	37.4345	380.1156	-0.0592	0.0182	-0.0073	-0.0462	0.0165	0.9585
8.526	28.2419	466.8991	43.9275	-146.0284	-30.0051	450.5071	-34.6177	352.9251	-26.7027	127.9133	45.1674	405.7457	-0.0592	0.0182	-0.0073	-0.0462	0.0165	0.9585
8.539	27.5592	425.8475	39.0985	-133.0177	-26.0221	411.0716	-37.1584	377.8419	-31.0848	136.7868	51.1349	433.5408	-0.0592	0.0182	-0.0073	-0.0462	0.0165	0.9585
8.552	26.7112	383.5166	33.763	-119.7502	-21.6091	370.3689	-38.2938	405.8468	-34.6233	146.9691	55.6116	464.2717	-0.0592	0.0182	-0.0073	-0.0462	0.0165	0.9585
8.565	25.4347	340.445	28.1673	-106.344	-17.0691	328.9629	-38.1811	437.199	-37.5532	158.5287	58.9146	498.2166	-0.0592	0.0182	-0.0073	-0.0462	0.0165	0.9585
8.578	23.4821	297.3782	22.6718	-92.9791	-12.8009	287.6031	-37.0797	471.5327	-40.2933	171.2837	61.576	534.9906	-0.0592	0.0182	-0.0073	-0.0462	0.0165	0.9585
8.591	20.6923	255.2691	17.634	-79.9078	-9.1799	247.2163	-35.3683	508.0468	-43.0928	184.8877	64.005	573.7441	-0.0592	0.0182	-0.0073	-0.0462	0.0165	0.9585
8.604	17.0132	215.2551	13.3383	-67.4565	-6.4872	208.8816	-33.4112	545.8113	-46.1985	198.9507	66.5903	613.4919	-0.0592	0.0182	-0.0073	-0.0462	0.0165	0.9585
8.617	12.588	178.5261	9.934	-55.9863	-4.8272	173.7008	-31.4992	584.0132	-49.6477	213.1404	69.4748	653.3667	-0.0592	0.0182	-0.0073	-0.0462	0.0165	0.9585
8.63	7.7271	146.0077	7.4435	-45.7918	-4.136	142.5256	-29.7842	621.8481	-53.4308	227.1407	72.6975	692.4908	-0.0592	0.0182	-0.0073	-0.0462	0.0165	0.9585
8.643	2.8004	118.138	5.7617	-37.0244	-4.2078	115.7501	-28.3	658.3961	-57.3593	240.6091	76.0849	729.8494	-0.0592	0.0182	-0.0073	-0.0462	0.0165	0.9585
8.656	-1.8168	94.7836	4.709	-29.6616	-4.7597	93.2221	-27.0327	692.5718	-61.2233	253.1545	79.4169	764.2805	-0.0592	0.0182	-0.0073	-0.0462	0.0165	0.9585
8.669	-5.8123	75.3776	4.079	-23.543	-5.4969	74.4195	-25.9196	723.2118	-64.771	264.3619	82.4207	794.5676	-0.0592	0.0182	-0.0073	-0.0462	0.0165	0.9585
8.682	-8.9189	59.1526	3.687	-18.439	-6.1617	58.6261	-24.9011	749.1178	-67.8575	273.7973	84.932	819.5018	-0.0592	0.0182	-0.0073	-0.0462	0.0165	0.9585
8.695	-10.9289	45.4002	3.3644	-14.1296	-6.5324	45.1871	-23.9287	769.1456	-70.3855	281.0473	86.84	837.9452	-0.0592	0.0182	-0.0073	-0.0462	0.0165	0.9585
8.708	-11.6534	33.5955	2.9864	-10.4486	-6.4379	33.6186	-22.9615	782.4625	-72.3442	285.8114	88.1221	849.1109	-0.0592	0.0182	-0.0073	-0.0462	0.0165	0.9585
8.721	-11.0008	23.4834	2.4926	-7.3104	-5.7967	23.6875	-21.9317	788.7988	-73.7007	288.0023	88.7296	852.7924	-0.0592	0.0182	-0.0073	-0.0462	0.0165	0.9585
8.734	-9.1798	15.1201	1.9	-4.7245	-4.6953	15.4501	-20.7792	788.5357	-74.4358	287.7772	88.6275	849.4505	-0.0592	0.0182	-0.0073	-0.0462	0.0165	0.9585
8.747	-6.8366	8.7414	1.3047	-2.7573	-3.4267	9.136	-19.4489	782.6648	-74.519	285.516	87.7773	840.164	-0.0592	0.0182	-0.0073	-0.0462	0.0165	0.9585
8.76	-4.5537	4.3341	0.80384	-1.4014	-2.2643	4.7745	-17.9083	772.6559	-73.9763	281.769	86.2003	826.4937	-0.0592	0.0182	-0.0073	-0.0462	0.0165	0.9585
8.773	-2.6261	1.6247	0.42607	-0.57275	-1.327	2.107	-16.1611	760.3417	-72.8905	277.2165	83.9871	810.3618	-0.0592	0.0182	-0.0073	-0.0462	0.0165	0.9585
8.786	-1.1563	0.20989	0.17929	-0.14803	-0.65543	0.72821	-14.217	747.7421	-71.4338	272.6005	81.3251	793.863	-0.0592	0.0182	-0.0073	-0.0462	0.0165	0.9585
8.799	-0.14928	-0.29837	0.034037	-0.0071404	-0.22148	0.257	-12.1015	736.7528	-69.8254	268.6093	78.4547	778.9536	-0.0592	0.0182	-0.0073	-0.0462	0.0165	0.9585
8.812	0.47368	-0.24904	-0.019818	-0.04047	0.010767	0.33293	-9.8605	728.8277	-68.2677	265.7684	75.6019	767.1194	-0.0592	0.0182	-0.0073	-0.0462	0.0165	0.9585
8.825	0.76706	0.083826	-0.020778	-0.15888	0.09883	0.69472	-7.5486	724.8881	-66.8924	264.4073	72.9223	759.3027	-0.0592	0.0182	-0.0073	-0.0462	0.0165	0.9585
8.838	0.83712	0.47049	0.02412	-0.28663	0.078666	1.0895	-5.1962	725.2787	-65.7663	264.6442	70.4987	755.8555	-0.0592	0.0182	-0.0073	-0.0462	0.0165	0.9585
8.851	0.73674	0.74821	0.088844	-0.36875	-0.0091082	1.3506	-2.8555	729.7042	-64.9112	266.361	68.3721	756.4885	-0.0592	0.0182	-0.0073	-0.0462	0.0165	0.9585
8.864	0.53143	0.76067	0.17321	-0.3534	-0.14764	1.2972	-0.5689	737.2419	-64.3134	269.2102	66.5455	760.2797	-0.0592	0.0182	-0.0073	-0.0462	0.0165	0.9585
